<svg width="363" height="446" viewBox="0 0 363 446" fill="none" xmlns="http://www.w3.org/2000/svg">
<g filter="url(#filter0_d_7_115)">
<path d="M287.239 145.501C287.239 124.959 287.139 104.516 287.239 83.9737C288.14 82.6711 289.441 81.669 290.542 80.4665C289.241 79.0636 286.539 76.4582 286.539 76.4582L285.338 77.7609L248.306 26.7554L250.108 24.9516L246.305 21.244L243.803 23.6489L184.753 4.30892L185.253 3.80788L181.55 0L177.346 3.70768L177.947 4.40912C177.947 4.40912 138.514 17.3359 118.897 23.5487C118.096 22.7471 116.295 21.1438 116.295 21.1438L112.392 25.0518C112.392 25.0518 113.593 26.2543 114.193 26.8556C112.592 29.2605 110.79 31.5653 109.089 33.9703C98.4799 48.5003 87.971 63.0304 77.362 77.5605C76.9617 77.1597 76.5613 76.7588 76.161 76.2578C74.8599 77.6607 73.3586 78.8632 72.1576 80.3663C73.3586 81.4686 74.4596 82.671 75.5605 83.8735C75.4604 104.316 75.5605 145.301 75.5605 145.301L72.3578 148.607L72.1576 148.808C72.1576 148.808 74.8599 151.513 76.161 152.816C76.5613 152.415 77.0618 152.015 77.4621 151.714C88.9718 167.547 100.482 183.379 111.991 199.312C112.692 200.314 114.193 202.419 114.193 202.419L112.292 204.323C112.292 204.323 114.994 206.928 116.295 208.331C117.096 207.529 118.797 205.826 118.797 205.826C118.797 205.826 126.704 208.331 130.707 209.634C146.32 214.744 177.547 224.865 177.547 224.865L177.146 225.266L181.35 229.375L185.153 225.567L184.653 224.965C184.653 224.965 221.484 213.041 239.799 207.129C241.1 206.728 242.401 206.227 243.703 205.926C244.703 206.628 245.404 207.529 246.305 208.331C247.606 206.928 249.107 205.726 250.308 204.223C249.708 203.621 249.107 203.02 248.507 202.419C260.717 185.684 272.927 168.849 285.138 152.015C285.738 151.814 286.138 152.616 286.639 152.916C287.94 151.614 289.241 150.311 290.542 148.908C289.541 147.706 288.44 146.603 287.239 145.501ZM242.502 115.339H267.022L268.624 116.942L248.807 161.634L248.106 161.033L247.506 161.634L237.798 137.384L237.197 138.687C237.197 138.687 243.603 154.419 246.705 162.336C246.205 162.837 245.104 163.839 245.104 163.839C245.104 163.839 239.699 163.639 237.097 163.338C230.892 163.037 217.781 162.336 217.781 162.336L216.279 163.238L244.803 164.941C244.803 164.941 245.404 165.543 245.804 165.843C233.694 176.666 221.584 187.588 209.474 198.511C208.973 198.01 208.573 197.609 208.072 197.108C207.872 197.208 207.572 197.308 207.372 197.408C204.67 189.492 201.867 181.676 199.165 173.86C198.965 173.96 198.464 174.16 198.264 174.261C200.966 182.377 203.869 190.394 206.571 198.511C206.071 199.012 205.67 199.413 205.17 199.914C189.457 198.411 157.029 195.104 157.029 195.104L155.928 194.302C155.928 194.302 167.939 184.281 173.844 179.471C175.745 177.968 180.149 174.361 180.149 174.361L178.848 174.16L178.247 174.661L155.228 193.701L153.626 192.498C153.626 192.498 148.122 172.757 145.52 163.338C145.42 162.536 144.619 162.135 144.018 161.634C146.621 172.056 152.626 193.3 152.626 193.3L152.125 193.901L110.19 168.649L110.89 167.647L109.589 166.444L131.207 150.311L130.707 149.71C130.707 149.71 117.296 159.63 110.39 164.841C109.99 165.142 108.889 165.943 108.889 165.943L107.287 164.54C107.287 164.54 100.281 132.775 96.7784 117.243C97.0787 116.942 97.2788 116.641 97.5791 116.441C106.687 122.353 115.694 128.366 124.802 134.278C124.702 133.677 124.602 133.075 124.001 132.875C115.394 127.263 106.787 121.551 98.1796 115.94C98.4798 115.539 98.8802 115.138 99.1804 114.737C98.8802 114.337 98.4798 113.936 98.1796 113.635C106.987 107.923 115.694 102.211 124.402 96.4997C124.502 96.199 124.702 95.5978 124.902 95.2972C115.794 101.209 106.687 107.222 97.479 113.134C97.1788 112.833 96.9786 112.533 96.6783 112.332C100.181 96.8003 106.987 65.6358 106.987 65.6358L108.989 63.8321L131.207 80.3663L131.508 79.6648L109.489 63.2308L110.79 61.9281C110.79 61.9281 110.19 61.3269 109.889 61.1265C123.001 53.4105 136.112 45.7948 149.123 38.179C150.023 37.678 151.625 36.7761 151.625 36.7761L152.325 37.7782C152.325 37.7782 146.821 57.8196 144.018 67.7402C144.419 67.5397 144.919 67.2391 145.319 66.9385C147.822 57.4188 153.126 38.4796 153.126 38.4796L155.228 36.7761L177.046 54.9136L178.548 55.0138L156.028 36.0746C156.028 36.0746 156.829 35.0726 157.53 34.9724C157.53 34.9724 189.156 31.7657 204.97 30.1624C205.47 30.6634 205.871 31.0643 206.371 31.5653C203.569 39.8825 197.764 56.5169 197.764 56.5169L198.865 56.6171C198.865 56.6171 199.866 53.6109 200.366 52.1078C202.568 45.5943 207.272 32.2668 207.272 32.2668L207.872 32.7678C207.872 32.7678 208.773 31.8659 209.273 31.3649C221.384 42.1873 245.604 64.0325 245.604 64.0325L244.603 65.0346C244.603 65.0346 225.888 66.0366 216.68 66.6379C216.98 66.8383 217.58 67.3393 217.881 67.6399C226.988 67.1389 235.996 66.5377 245.104 66.1368C245.604 66.6379 246.005 67.0387 246.505 67.5397C243.803 74.5543 240.9 81.4686 238.098 88.4831C237.497 90.0864 236.396 91.6897 237.097 93.4934C240.5 85.2764 247.206 68.3414 247.206 68.3414L247.706 68.7422L248.507 68.141L268.323 112.833L266.622 114.437L241.801 114.537L242.502 115.339ZM249.708 67.2391L249.608 67.0387L250.108 66.5377C250.108 66.5377 266.222 72.9509 274.228 76.0574C277.231 77.2599 283.336 79.6648 283.336 79.6648L282.635 80.3663C282.635 80.3663 284.137 81.8694 284.937 82.5708C280.434 92.0905 271.026 111.831 271.026 111.831L270.225 111.03L269.524 111.631C269.524 111.731 256.313 82.0698 249.708 67.2391ZM247.406 27.7574L247.606 27.557L248.607 28.9599L284.537 78.5626L284.237 78.8632L250.909 65.6358L251.609 64.9343C251.609 64.9343 249.608 62.9302 248.707 62.0283C248.306 53.6109 248.006 45.2937 247.606 36.8763C247.606 33.8701 247.105 30.8639 247.406 27.7574ZM246.005 28.1583C246.005 28.1583 247.005 51.1057 247.606 62.1285C247.306 62.4292 247.005 62.7298 246.805 63.0304C234.695 52.208 222.585 41.2854 210.474 30.3628C210.875 29.962 211.175 29.5612 211.575 29.2605C222.184 28.1583 243.602 25.9537 243.602 25.9537L246.005 28.1583ZM203.068 11.6241C215.579 15.7326 228.189 19.8411 240.7 23.8493C241.401 24.15 243.202 24.7512 243.202 24.7512C243.202 24.7512 221.584 27.056 210.875 28.1583C209.974 27.2564 208.072 25.3525 208.072 25.3525L206.371 26.8556C206.371 26.8556 191.158 12.5259 183.652 5.31099C190.257 7.31514 196.663 9.5197 203.068 11.6241ZM181.45 7.91638C181.45 7.91638 182.651 6.8141 183.251 6.21286C190.658 13.2274 205.971 27.557 205.971 27.557L204.77 28.7595C204.77 28.7595 172.843 32.0663 156.829 33.5695C156.629 33.369 156.329 33.0684 156.129 32.868C164.035 24.0498 179.949 6.31306 179.949 6.31306L181.45 7.91638ZM119.798 24.5508C119.798 24.5508 158.531 12.0249 177.747 5.71182L178.648 5.31099L179.048 5.71182C179.048 5.71182 168.439 17.6365 163.034 23.6489C160.432 26.4547 157.93 29.461 155.228 32.2668C154.827 31.8659 153.927 30.9641 153.927 30.9641L151.124 33.2688L119.398 25.3525L119.898 24.8514L119.798 24.5508ZM116.195 28.5591L118.697 26.1541C118.697 26.1541 140.015 31.4651 150.424 34.0705C150.724 34.4713 151.024 34.9724 151.325 35.3732C137.413 43.49 109.489 59.924 109.489 59.924L108.688 59.3227C108.688 59.3227 113.593 39.2813 116.095 29.3608L116.195 28.5591ZM114.894 28.1583C113.693 34.1707 112.091 39.9827 110.69 45.9952C109.689 50.0035 107.588 58.6213 107.588 58.6213L107.387 58.4209L103.784 61.9281C103.784 61.9281 104.485 62.5294 104.785 62.83C95.9777 68.141 87.2704 73.3518 78.4629 78.5626C90.5732 61.6275 102.783 44.8929 114.894 28.1583ZM80.1644 80.4665C79.8641 80.0657 79.4638 79.6648 79.1635 79.1638C87.971 73.953 96.6783 68.642 105.486 63.4312C105.686 63.6317 105.986 63.9323 106.186 64.1327C102.884 79.765 99.3806 95.2972 95.9777 110.93C95.5774 111.23 95.1771 111.631 94.7767 111.932C89.172 102.111 83.6673 92.291 78.0626 82.5708C78.7632 81.8694 79.4638 81.1679 80.1644 80.4665ZM76.9617 146.002C76.7615 144.699 76.7615 143.397 76.7615 142.094C76.7615 122.854 76.7615 103.715 76.7615 84.4748C76.8616 84.074 76.6614 83.2723 77.2619 83.5729C82.8666 93.293 88.4714 103.013 93.976 112.833C93.2755 113.435 92.675 114.136 92.0744 114.838C92.675 115.439 93.2755 116.04 93.976 116.641C88.8717 125.56 83.6673 134.478 78.563 143.397C78.2628 144.299 77.7623 145.301 76.9617 146.002ZM94.7767 117.443C95.1771 117.744 95.5774 118.144 95.9777 118.445C99.3806 133.677 106.186 165.342 106.186 165.342L105.586 166.044C105.586 166.044 87.971 155.422 79.1635 150.111C79.5639 149.71 79.8641 149.309 80.2645 149.008C79.5639 148.307 78.8633 147.605 78.1627 146.904C83.5672 136.883 89.2721 127.163 94.7767 117.443ZM78.3628 150.712C87.1703 155.923 96.0778 161.334 104.885 166.645C104.585 166.945 103.884 167.547 103.884 167.547L107.788 171.054C107.788 171.054 112.792 191.296 115.094 201.216C102.783 184.482 90.5732 167.547 78.3628 150.712ZM115.995 200.114C115.995 200.114 111.091 180.173 108.588 170.252C108.789 170.052 109.089 169.651 109.189 169.451C123.201 177.567 151.525 194.102 151.525 194.102L150.524 195.304L118.997 203.02L115.995 200.114ZM175.245 222.661C156.829 216.648 119.798 204.623 119.798 204.623L120.298 204.122L119.998 203.822L151.625 196.106C152.425 196.907 153.226 197.709 154.027 198.511C154.427 198.01 154.827 197.609 155.328 197.208C160.532 202.82 165.537 208.632 170.741 214.243C173.543 217.45 176.546 220.556 179.248 223.863C177.847 223.663 176.546 223.062 175.245 222.661ZM181.55 221.458L179.849 222.961C179.849 222.961 163.935 205.325 156.028 196.507L156.629 195.805C156.629 195.805 189.056 199.112 204.67 200.615C205.07 201.116 206.071 201.617 205.37 202.319C198.164 209.033 183.151 223.062 183.151 223.062L181.55 221.458ZM203.268 217.65C196.763 219.755 190.357 221.959 183.852 223.863C191.358 216.648 198.965 209.634 206.471 202.519C207.072 203.02 207.472 203.621 208.173 203.922C209.173 203.12 209.974 202.118 210.875 201.216C218.381 202.018 225.988 202.719 233.494 203.521C236.697 203.922 239.899 203.922 243.002 204.623C229.791 209.032 216.48 213.241 203.268 217.65ZM246.005 200.415C245.404 201.517 244.303 202.319 243.402 203.12C242.101 203.22 240.8 203.02 239.499 202.92C230.191 202.018 220.783 201.116 211.475 200.214C211.075 199.813 210.775 199.413 210.374 199.112C222.485 188.29 234.595 177.367 246.705 166.444C247.005 166.745 247.306 167.046 247.506 167.246C247.005 178.269 246.605 189.392 246.005 200.415ZM267.723 173.86C261.017 183.079 254.312 192.298 247.706 201.517C247.005 200.815 247.306 199.914 247.306 199.012C247.806 188.49 248.206 177.968 248.707 167.446C249.708 166.444 251.709 164.54 251.709 164.54L251.109 163.739C251.109 163.739 272.527 155.121 283.036 150.912C283.536 150.712 284.037 150.612 284.637 150.511C279.133 158.328 273.328 166.044 267.723 173.86ZM282.635 148.808C282.836 149.008 283.136 149.409 283.336 149.509C272.327 153.918 261.418 158.428 250.408 162.737C250.308 162.536 250.008 162.236 249.808 162.035C256.413 147.205 262.919 132.374 269.624 117.543C269.825 117.744 270.125 117.944 270.425 118.245C270.625 118.044 271.026 117.643 271.226 117.443C275.83 127.063 280.434 136.683 285.038 146.303C284.137 147.305 283.336 148.106 282.635 148.808ZM286.038 104.516C286.038 115.038 286.038 125.56 286.038 135.981C286.038 139.188 286.138 142.495 285.938 145.701C285.037 144.399 284.437 142.896 283.736 141.493C279.833 133.176 275.73 125.059 271.826 116.742C272.527 116.14 273.228 115.439 273.928 114.637C273.228 113.936 272.527 113.334 271.826 112.633C274.929 105.819 278.232 99.105 281.434 92.3912C282.936 89.3849 284.137 86.2785 285.838 83.4727C286.138 90.4872 285.938 97.5017 286.038 104.516Z" fill="#292727"/>
<path d="M185.053 58.0201C179.448 56.8176 173.743 55.7153 168.139 54.5128C167.238 54.2122 166.537 54.9136 165.837 55.3145C161.733 58.0201 157.53 60.6255 153.426 63.4313C158.531 62.83 163.535 61.7277 168.539 60.9261C174.044 59.924 179.548 59.1224 185.053 58.0201Z" fill="#292727"/>
<path d="M187.855 56.3165C188.056 56.8175 188.256 57.2184 188.456 57.7194C192.76 57.3186 197.063 57.519 201.367 56.9178C193.06 56.3165 184.753 55.5149 176.446 54.9136C175.045 54.8134 173.643 54.613 172.242 54.7132C176.546 55.6151 180.95 56.5169 185.253 57.4188C186.154 57.018 186.955 56.7173 187.855 56.3165Z" fill="#292727"/>
<path d="M204.269 63.7319C209.173 65.3352 213.977 67.2392 218.882 68.7423C214.378 64.9344 209.974 61.2267 205.47 57.5191C200.066 57.9199 194.661 58.0201 189.257 58.3207C194.161 60.3248 199.165 61.9282 204.269 63.7319Z" fill="#292727"/>
<path d="M164.335 81.3684L164.736 81.8694C164.736 81.8694 179.048 66.3373 185.954 58.7215C183.251 58.9219 180.549 59.6234 177.847 60.0242C169.54 61.4271 161.333 62.83 153.026 64.2329C152.926 64.3331 152.626 64.7339 152.526 64.8341C156.229 70.4458 163.635 81.7692 163.635 81.7692L164.335 81.3684Z" fill="#292727"/>
<path d="M187.255 59.1223C186.454 59.4229 185.954 60.1244 185.453 60.7256C179.849 66.8383 174.244 72.9509 168.739 79.0636C167.638 80.2661 166.337 81.4686 165.436 82.8715C167.638 83.2723 169.94 83.2723 172.142 83.4727C182.05 84.2744 205.07 86.1783 205.07 86.1783L204.97 85.9779L205.67 85.7775C205.57 85.6773 193.26 67.9406 187.255 59.1223Z" fill="#292727"/>
<path d="M192.059 60.1244C190.758 59.7236 189.557 59.1223 188.156 59.0221C194.161 67.8404 206.371 85.3767 206.371 85.3767L207.672 84.9758C207.672 84.9758 216.179 74.7547 219.983 70.0449C218.581 69.3435 217.08 68.9427 215.679 68.4416C207.672 65.736 199.866 62.9302 192.059 60.1244Z" fill="#292727"/>
<path d="M131.308 91.8901C141.616 89.1845 162.734 83.2723 162.734 83.2723L162.334 82.6711L162.934 82.2702C162.934 82.2702 155.528 70.8466 151.925 65.235C151.325 65.5356 150.824 65.9364 150.424 66.5377C146.22 72.1493 142.017 77.6607 137.813 83.2723C135.611 85.9779 133.309 88.7837 131.308 91.8901Z" fill="#292727"/>
<path d="M150.224 65.3352C145.219 68.0408 140.415 70.8466 135.411 73.6524C134.61 73.953 134.31 74.7547 134.21 75.4562C133.209 80.5667 131.808 85.6773 130.907 90.8881C137.413 82.3705 143.918 73.953 150.224 65.3352Z" fill="#292727"/>
<path d="M208.473 86.98C208.473 86.98 218.281 91.7899 223.185 94.1949C227.689 96.2993 232.093 98.604 236.597 100.608C234.095 95.8984 231.592 91.1887 229.09 86.4789C226.288 81.2682 223.686 75.9572 220.683 70.8466L208.173 85.9779L208.473 86.98Z" fill="#292727"/>
<path d="M236.096 93.7941C235.596 90.1866 235.095 86.6793 234.495 83.0719C234.395 82.2702 233.694 81.8694 233.194 81.3683C229.39 78.1617 225.787 74.6545 221.984 71.4478C226.888 80.8673 231.892 90.0864 236.797 99.5059C236.697 97.6019 236.296 95.698 236.096 93.7941Z" fill="#292727"/>
<path d="M128.505 91.8901C128.505 91.8901 129.606 91.3891 130.106 91.1887C131.007 87.5812 131.808 83.8735 132.609 80.1659C132.809 79.264 133.009 78.3622 133.109 77.5605C132.308 79.0636 131.708 80.7671 131.007 82.3704C127.704 90.2868 124.302 98.2032 121.099 106.22C123.801 102.412 129.206 93.6939 129.206 93.6939L128.505 91.8901Z" fill="#292727"/>
<path d="M131.508 92.6918L131.007 93.3933C131.007 93.3933 140.515 110.128 145.319 118.445C145.92 119.547 146.42 120.75 147.321 121.552C149.323 117.343 150.924 113.034 152.726 108.825C155.928 101.109 159.131 93.3933 162.434 85.6773C162.634 85.1763 162.734 84.575 162.834 84.074C159.732 84.6752 156.729 85.6773 153.626 86.479C146.52 88.4831 131.508 92.6918 131.508 92.6918Z" fill="#292727"/>
<path d="M170.341 92.5916C174.544 99.4057 182.851 112.934 182.851 112.934L184.152 112.633L205.47 87.5812L205.27 87.0802C205.27 87.0802 182.651 85.1762 171.341 84.1742C169.54 84.1742 165.436 83.6731 165.436 83.6731L165.236 83.8735L170.341 92.5916Z" fill="#292727"/>
<path d="M162.534 88.0823C158.03 98.8045 153.526 109.527 149.023 120.349C148.822 120.85 148.622 121.451 148.522 122.053C150.824 121.652 153.126 121.05 155.328 120.549C164.035 118.545 181.95 114.236 181.95 114.236L181.65 113.335L181.95 113.234C181.95 113.234 170.14 93.9945 164.235 84.575C163.435 85.5771 163.034 86.8798 162.534 88.0823Z" fill="#292727"/>
<path d="M218.081 126.261C224.286 118.144 230.491 110.028 236.697 102.011C236.496 101.911 236.196 101.61 235.996 101.41C226.888 97.0007 208.773 88.1824 208.773 88.1824L208.273 87.982L207.672 88.1824C210.775 101.109 213.777 114.036 216.78 126.963C217.18 126.762 217.781 126.662 218.081 126.261Z" fill="#292727"/>
<path d="M185.353 114.838C185.353 114.838 205.77 123.556 215.879 127.764C215.279 124.157 214.278 120.65 213.477 117.142C211.275 107.623 206.771 88.4831 206.771 88.4831L206.171 88.6835C199.065 96.9005 185.053 113.435 185.053 113.435L185.353 114.838Z" fill="#292727"/>
<path d="M238.898 101.61C238.898 101.61 238.598 99.4057 238.298 98.3034C237.497 95.0968 236.897 91.79 235.896 88.5833C236.296 92.291 237.497 99.9067 237.497 99.9067L238.898 101.61Z" fill="#292727"/>
<path d="M130.307 93.9945C128.806 104.516 127.104 115.138 125.603 125.66C125.503 126.261 125.603 126.862 125.603 127.464C127.705 127.163 129.706 126.562 131.808 126.161C136.512 125.059 141.116 124.057 145.82 122.954C145.82 122.754 145.72 122.353 145.72 122.153C145.92 121.952 146.521 121.752 146.12 121.351C141.116 112.533 136.112 103.715 131.107 94.8963C130.807 94.4955 130.607 94.1949 130.307 93.9945Z" fill="#292727"/>
<path d="M129.406 94.3953C126.303 99.0048 123.401 103.815 120.298 108.525C119.798 109.126 119.898 109.827 120.098 110.529C121.399 115.238 122.8 119.848 124.202 124.558C124.302 125.059 124.602 125.56 124.802 126.061C126.303 115.539 128.105 105.017 129.406 94.3953Z" fill="#292727"/>
<path d="M241.701 113.936C241.3 110.028 239.999 106.32 239.299 102.412C238.999 102.512 238.498 102.813 238.198 102.913C239.399 106.621 240.6 110.228 241.701 113.936Z" fill="#292727"/>
<path d="M236.997 103.013C230.491 111.13 224.386 119.547 217.881 127.764C217.981 128.165 218.181 128.466 218.381 128.867C224.286 131.372 230.191 134.077 236.096 136.683C236.396 132.173 236.396 127.664 236.596 123.155C236.596 116.441 237.097 109.727 236.997 103.013Z" fill="#292727"/>
<path d="M237.797 103.815C237.497 114.337 237.197 124.858 236.997 135.28C239.099 130.169 241.1 124.959 243.102 119.848C242.702 118.044 242.001 116.241 241.401 114.437C240.2 110.93 239.199 107.322 237.797 103.815Z" fill="#292727"/>
<path d="M180.049 143.597C180.849 134.879 182.551 116.341 182.551 116.341L182.251 115.238C182.251 115.238 159.932 120.449 148.922 123.055C149.223 123.455 149.323 123.956 149.723 124.357C159.632 132.875 169.44 141.393 179.248 149.91C179.849 147.806 179.749 145.701 180.049 143.597Z" fill="#292727"/>
<path d="M199.165 138.787C204.469 135.48 209.874 132.374 215.179 129.067C215.179 128.967 215.179 128.766 215.179 128.766C205.37 124.458 185.253 115.94 185.253 115.94L183.752 116.241C182.751 126.261 181.85 136.382 180.95 146.403C180.85 147.505 180.649 148.708 180.95 149.81C187.055 146.203 193.06 142.495 199.165 138.787Z" fill="#292727"/>
<path d="M121.9 119.247C122.5 121.852 123.001 124.558 123.801 127.163C124.402 126.562 123.901 125.66 123.701 124.959C123.101 123.055 122.7 121.05 121.9 119.247Z" fill="#292727"/>
<path d="M145.019 156.223C145.62 145.802 146.22 135.38 146.821 124.959C146.52 124.458 146.32 123.956 146.02 123.455C139.414 124.959 132.709 126.562 126.103 127.965C126.003 128.165 125.903 128.566 125.803 128.766C129.606 134.278 133.509 139.789 137.313 145.301C139.915 149.008 142.317 152.716 145.019 156.223Z" fill="#292727"/>
<path d="M149.223 156.223C158.831 154.42 168.539 152.616 178.247 150.812C178.147 150.511 178.047 150.211 177.947 149.91C168.939 142.194 160.032 134.478 151.024 126.662C150.023 125.76 149.023 124.758 147.922 124.157C147.121 134.979 146.721 145.802 145.92 156.624C147.021 156.825 148.122 156.424 149.223 156.223Z" fill="#292727"/>
<path d="M124.502 129.468C124.402 130.47 124.702 131.372 124.902 132.374C125.302 133.977 125.603 135.581 126.003 137.184C126.003 135.48 125.503 133.877 125.302 132.274C125.102 131.272 125.202 130.169 124.502 129.468Z" fill="#292727"/>
<path d="M138.814 148.607C134.41 142.294 130.006 135.881 125.503 129.668C126.303 134.979 127.404 140.19 128.305 145.501C128.405 146.203 128.705 147.004 129.406 147.305C134.31 150.311 139.114 153.317 144.018 156.223C142.417 153.618 140.515 151.113 138.814 148.607Z" fill="#292727"/>
<path d="M216.88 130.169C215.379 140.691 213.677 151.113 212.376 161.634C213.277 160.933 214.177 160.131 214.878 159.229C221.784 152.015 228.79 144.9 235.696 137.685C229.791 134.879 223.786 132.474 217.781 129.768C217.58 129.869 217.18 130.069 216.88 130.169Z" fill="#292727"/>
<path d="M183.952 152.015C193.06 155.422 202.067 158.929 211.175 162.336C211.876 160.733 211.776 158.929 212.176 157.125C213.477 148.307 214.778 139.489 215.979 130.771C215.879 130.57 215.579 130.169 215.479 129.969C204.169 136.883 192.76 143.697 181.45 150.712C182.05 151.514 183.051 151.614 183.952 152.015Z" fill="#292727"/>
<path d="M226.988 147.706C222.585 152.516 217.781 157.025 213.477 161.835C218.281 159.63 222.985 157.426 227.789 155.321C228.49 155.021 228.69 154.219 229.09 153.618C231.192 148.808 233.394 143.998 235.496 139.188C232.493 141.894 229.891 144.9 226.988 147.706Z" fill="#292727"/>
<path d="M144.719 159.229C144.419 158.428 144.118 157.626 143.718 156.925C143.218 156.424 142.617 156.123 142.017 155.722C138.414 153.518 134.911 151.313 131.308 149.209C132.509 150.511 134.01 151.614 135.311 152.816C140.716 157.526 146.22 162.236 151.625 166.945C152.826 167.948 153.827 168.95 155.128 169.751C152.125 166.044 149.123 162.436 146.02 158.728C145.52 158.829 145.119 159.029 144.719 159.229Z" fill="#292727"/>
<path d="M178.548 151.513C167.939 153.518 157.33 155.422 146.621 157.526C147.321 158.027 148.022 158.528 148.822 158.929C154.427 161.735 160.132 164.44 165.737 167.346C169.44 169.15 172.943 171.054 176.746 172.657C177.547 166.344 178.247 160.031 178.948 153.818C179.248 152.916 178.848 152.215 178.548 151.513Z" fill="#292727"/>
<path d="M210.274 163.138C208.573 162.135 206.571 161.634 204.77 160.933C196.963 157.927 189.156 155.021 181.35 152.015C181.15 152.115 180.649 152.315 180.449 152.415C179.949 155.822 179.648 159.129 179.148 162.536C178.748 165.943 178.247 169.35 178.047 172.757C180.549 172.156 182.851 171.355 185.353 170.653C193.56 168.048 201.967 165.643 210.274 163.138Z" fill="#292727"/>
<path d="M213.477 163.739C212.676 164.039 211.876 164.44 210.975 164.741C210.875 164.641 210.575 164.44 210.374 164.34C206.971 167.046 203.368 169.451 200.066 172.357C208.273 167.446 216.48 162.436 224.686 157.426C220.783 158.929 216.98 160.933 213.177 162.536C213.277 162.937 213.377 163.338 213.477 163.739Z" fill="#292727"/>
<path d="M157.029 171.054C157.53 171.956 158.631 171.655 159.531 171.856C164.836 172.056 170.04 172.757 175.345 172.757C165.837 168.148 156.429 163.338 147.021 158.728C150.224 162.937 153.727 166.945 157.029 171.054Z" fill="#292727"/>
<path d="M200.566 166.745C193.36 168.95 186.154 170.954 179.048 173.258C184.252 173.86 189.457 174.361 194.661 174.962C195.762 175.162 196.463 174.361 197.263 173.76C201.467 170.453 205.771 167.346 209.974 164.039C206.771 164.841 203.669 165.843 200.566 166.745Z" fill="#292727"/>
<path d="M15.71 123.255C32.6243 93.2931 49.2383 63.2309 66.0525 33.2689C62.1492 45.5944 57.5453 57.6192 53.4419 69.8445C46.1357 90.5875 38.9296 111.33 31.6234 132.073C26.3189 129.067 20.9144 126.261 15.71 123.255Z" fill="#292727"/>
<path d="M294.846 33.2689C306.255 65.9365 317.865 98.4036 329.075 131.071C322.569 128.165 316.164 125.159 309.658 122.253C304.854 92.5916 299.65 63.0304 294.846 33.2689Z" fill="#292727"/>
<path d="M64.351 44.4921C65.6521 40.8846 66.9532 37.3774 68.0542 33.7699C67.9541 35.4734 67.854 37.177 67.5537 38.8805C62.7497 66.7381 58.346 94.5958 53.4418 122.353C46.9363 125.159 40.5309 128.265 34.0254 131.171C44.0338 102.212 54.2425 73.3518 64.351 44.4921Z" fill="#292727"/>
<path d="M297.348 33.6697C312.761 61.0263 327.974 88.3829 343.287 115.84C344.688 118.345 346.189 120.85 347.39 123.455C342.086 126.161 336.981 129.167 331.677 131.973C322.469 105.819 313.361 79.7651 304.154 53.6109C301.852 46.9973 299.149 40.4838 297.348 33.6697Z" fill="#292727"/>
<path d="M33.8252 133.576C40.1305 130.27 46.7361 127.664 53.1415 124.558C55.8438 142.495 58.5461 160.532 61.2484 178.469C62.5495 187.488 64.1508 196.507 65.1517 205.625C55.0431 181.475 44.1339 157.626 33.8252 133.576Z" fill="#292727"/>
<path d="M301.952 178.169C304.654 160.332 307.156 142.395 310.059 124.558C316.464 127.664 322.969 130.47 329.375 133.376C319.166 157.326 308.557 181.075 298.148 204.924C298.949 196.006 300.651 187.087 301.952 178.169Z" fill="#292727"/>
<path d="M15.2095 125.46C20.514 127.965 25.5182 130.971 30.7226 133.777C21.8151 159.43 12.7074 184.983 4 210.736C4.80068 200.916 6.50211 191.095 7.70313 181.275C10.2052 162.637 12.6073 144.098 15.2095 125.46Z" fill="#292727"/>
<path d="M332.678 133.576C337.782 130.871 342.886 127.965 347.991 125.259C351.093 149.109 354.396 172.858 357.499 196.607C357.999 200.916 358.9 205.225 358.8 209.634C353.295 193.4 347.59 177.267 341.986 161.133C338.983 152.015 335.48 142.896 332.678 133.576Z" fill="#292727"/>
<path d="M303.653 195.304C312.561 175.062 321.368 154.82 330.276 134.578C330.376 163.238 329.775 191.997 329.575 220.657C318.666 217.751 307.757 214.644 296.747 211.838C298.349 206.126 301.351 200.815 303.653 195.304Z" fill="#292727"/>
<path d="M32.8243 134.679C43.8336 158.829 54.1424 183.279 64.9515 207.529C65.6521 208.932 66.0524 210.435 66.1525 211.939C55.2433 214.644 44.4342 218.051 33.4249 220.657C33.3248 191.997 33.1246 163.338 32.8243 134.679Z" fill="#292727"/>
<path d="M332.177 167.446C332.277 157.225 332.177 147.004 332.477 136.783C340.985 161.634 349.692 186.285 358.299 211.137C349.492 214.143 340.584 216.949 331.677 219.955C331.877 202.419 331.577 184.983 332.177 167.446Z" fill="#292727"/>
<path d="M31.0228 136.182C31.0228 136.182 31.1229 192.598 31.6234 219.955C22.7158 217.149 13.9084 214.043 5.00085 211.237L31.0228 136.182Z" fill="#292727"/>
<path d="M5.00085 213.341C13.8083 216.147 22.5157 218.953 31.223 222.059C34.0254 228.272 36.2272 234.686 38.8294 240.999C44.234 255.028 49.8387 268.856 55.1432 282.986C38.2289 259.838 21.6149 236.59 5.00085 213.341Z" fill="#292727"/>
<path d="M331.777 221.959C340.584 219.053 349.392 216.047 358.199 213.241C342.286 235.487 326.272 257.633 310.359 279.879C309.658 280.881 308.858 281.883 308.157 282.785C315.763 262.443 323.97 242.301 331.777 221.959Z" fill="#292727"/>
<path d="M33.8252 222.761C44.8345 219.755 55.7437 216.648 66.753 213.842C63.7505 236.89 60.5478 259.838 57.3451 282.885C49.3383 262.944 41.7319 242.802 33.8252 222.761Z" fill="#292727"/>
<path d="M296.247 213.642C307.256 216.748 318.266 219.654 329.275 222.661C321.668 242.602 313.762 262.443 306.055 282.284C305.154 280.079 305.054 277.675 304.754 275.37C301.952 254.827 299.149 234.285 296.247 213.642Z" fill="#292727"/>
<path d="M68.0542 214.544C75.6607 230.577 83.2671 246.71 90.8735 262.744C80.1644 269.257 69.4554 275.871 58.7463 282.284C61.7489 259.737 64.7514 237.091 68.0542 214.544Z" fill="#292727"/>
<path d="M308.557 284.689C325.271 261.14 342.186 237.792 359 214.243C356.198 230.176 352.695 246.009 349.692 261.942C347.09 274.769 344.788 287.695 341.986 300.422C330.876 295.111 319.667 289.9 308.557 284.689Z" fill="#292727"/>
<path d="M4.2002 214.444C20.4139 236.489 36.1272 258.836 52.1407 280.981C53.0415 282.184 53.8422 283.486 54.5428 284.789C43.3333 289.8 32.324 295.511 21.0144 300.422C15.5098 271.662 9.70485 243.103 4.2002 214.444Z" fill="#292727"/>
<path d="M272.427 262.944C279.833 246.71 287.54 230.577 295.246 214.444C298.249 237.091 301.451 259.637 304.454 282.184C293.645 276.071 283.136 269.257 272.427 262.944Z" fill="#292727"/>
<path d="M88.2712 266.652C89.3722 265.95 90.4731 265.249 91.6741 264.748C103.084 277.274 114.694 289.599 126.103 302.125C103.484 296.614 81.0652 290.501 58.446 284.789C68.3544 278.677 78.4629 272.764 88.2712 266.652Z" fill="#292727"/>
<path d="M236.897 302.225C248.306 289.599 260.116 277.274 271.526 264.648C279.032 269.157 286.539 273.766 294.145 278.376C297.548 280.581 301.251 282.384 304.354 284.889C281.835 290.702 259.416 296.614 236.897 302.225Z" fill="#292727"/>
<path d="M22.1152 302.225C33.3247 296.914 44.4341 291.704 55.6436 286.393C61.9489 319.561 68.054 352.73 74.1592 385.898C73.6588 385.297 73.1584 384.696 72.6579 383.995C55.7436 356.738 38.9294 329.482 22.1152 302.225Z" fill="#292727"/>
<path d="M237.497 303.328C259.516 297.616 281.434 291.904 303.453 286.393C295.246 294.81 287.239 303.227 279.032 311.645C271.226 319.661 263.619 327.878 255.713 335.594C253.311 332.087 251.509 328.179 249.307 324.572C245.404 317.457 241.2 310.543 237.497 303.328Z" fill="#292727"/>
<path d="M287.54 387.802C287.54 387.802 266.922 354.333 256.614 337.599C273.127 320.563 289.742 303.428 306.255 286.292C303.753 301.323 300.751 316.355 297.948 331.386" fill="#292727"/>
<path d="M307.556 286.393C318.766 291.603 329.875 296.914 340.985 302.225C325.672 327.377 310.059 352.329 294.646 377.481C292.844 380.487 290.842 383.393 289.241 386.5L307.556 286.393Z" fill="#292727"/>
<path d="M56.8447 286.393C72.8583 302.827 88.7717 319.361 104.785 335.895C105.386 336.697 106.887 337.599 105.886 338.601C95.8777 355.035 85.7692 371.469 75.6606 387.802C69.3553 353.932 63.1501 320.162 56.8447 286.393Z" fill="#292727"/>
<path d="M59.7471 286.393C81.7657 291.904 103.784 297.616 125.703 303.328C119.698 314.05 113.593 324.872 107.588 335.594C104.585 333.089 102.083 329.983 99.2805 327.177C86.1694 313.749 72.9582 300.121 59.7471 286.393Z" fill="#292727"/>
<path d="M127.504 304.229C133.309 311.444 138.514 319.06 144.119 326.375C155.428 341.707 166.838 356.939 178.047 372.27C155.028 360.646 132.208 348.722 109.289 336.997C115.294 325.974 121.499 315.152 127.504 304.229Z" fill="#292727"/>
<path d="M182.951 321.966C199.865 316.254 216.68 310.242 233.594 304.53C224.286 317.557 214.578 330.384 205.07 343.31C197.764 353.03 190.658 363.051 183.251 372.671C183.351 367.06 183.251 361.448 183.552 355.836C183.251 344.513 182.951 333.189 182.951 321.966Z" fill="#292727"/>
<path d="M234.495 305.432C234.795 304.931 235.796 303.929 236.096 305.031C242.001 315.753 248.106 326.275 253.911 336.997C230.992 348.822 208.072 360.646 185.053 372.37C201.467 350.024 218.081 327.778 234.495 305.432Z" fill="#292727"/>
<path d="M129.406 304.43C146.42 310.242 163.435 316.154 180.449 322.066C180.349 331.486 179.849 340.805 179.749 350.124C179.548 357.64 179.949 365.055 179.849 372.571C163.034 349.924 146.22 327.177 129.406 304.43Z" fill="#292727"/>
<path d="M77.1619 389.506C87.3705 372.37 97.8794 355.536 108.288 338.601C131.908 350.926 155.828 362.951 179.448 375.377C145.319 380.086 111.291 384.796 77.1619 389.506Z" fill="#292727"/>
<path d="M203.769 364.955C220.783 356.137 237.898 347.419 254.912 338.601C265.321 355.536 275.73 372.571 286.138 389.506C252.11 384.796 217.981 380.187 183.952 375.377C190.357 371.569 197.163 368.462 203.769 364.955Z" fill="#292727"/>
<path d="M183.051 376.579C197.864 378.283 212.576 380.587 227.389 382.592C246.705 385.197 265.921 388.003 285.238 390.508C280.634 393.013 275.73 394.717 271.026 396.921C241.701 409.648 212.276 422.374 182.951 435C183.051 415.56 182.751 396.019 183.051 376.579Z" fill="#292727"/>
<path d="M151.625 380.387C161.133 379.185 170.641 377.481 180.149 376.679C180.349 396.12 180.149 415.56 180.149 435C146.02 420.37 111.991 405.339 77.7623 390.809C86.9701 389.005 96.4781 388.103 105.786 386.7C121.099 384.596 136.412 382.491 151.625 380.387Z" fill="#292727"/>
</g>
<defs>
<filter id="filter0_d_7_115" x="0" y="0" width="363" height="446" filterUnits="userSpaceOnUse" color-interpolation-filters="sRGB">
<feFlood flood-opacity="0" result="BackgroundImageFix"/>
<feColorMatrix in="SourceAlpha" type="matrix" values="0 0 0 0 0 0 0 0 0 0 0 0 0 0 0 0 0 0 127 0" result="hardAlpha"/>
<feOffset dy="7"/>
<feGaussianBlur stdDeviation="2"/>
<feComposite in2="hardAlpha" operator="out"/>
<feColorMatrix type="matrix" values="0 0 0 0 0 0 0 0 0 0 0 0 0 0 0 0 0 0 0.4 0"/>
<feBlend mode="normal" in2="BackgroundImageFix" result="effect1_dropShadow_7_115"/>
<feBlend mode="normal" in="SourceGraphic" in2="effect1_dropShadow_7_115" result="shape"/>
</filter>
</defs>
</svg>
