<svg width="464" height="487" viewBox="0 0 464 487" fill="none" xmlns="http://www.w3.org/2000/svg">
<path d="M145.48 243.933C145.48 247.141 142.878 249.742 139.672 249.742C136.464 249.742 133.863 247.141 133.863 243.933C133.863 240.724 136.464 238.123 139.672 238.123C142.878 238.123 145.48 240.724 145.48 243.933Z" fill="#FDAF17"/>
<path d="M236.848 101.737C236.848 104.946 234.247 107.546 231.039 107.546C227.831 107.546 225.231 104.946 225.231 101.737C225.231 98.5284 227.831 95.9276 231.039 95.9276C234.247 95.9276 236.848 98.5284 236.848 101.737Z" fill="#FDAF17"/>
<path d="M316.601 243.947C316.601 240.738 319.201 238.138 322.409 238.138C325.617 238.138 328.218 240.738 328.218 243.947C328.218 247.156 325.617 249.756 322.409 249.756C319.201 249.756 316.601 247.156 316.601 243.947Z" fill="#FDAF17"/>
<path d="M225.231 386.143C225.231 382.934 227.831 380.333 231.039 380.333C234.247 380.333 236.848 382.934 236.848 386.143C236.848 389.351 234.247 391.952 231.039 391.952C227.831 391.952 225.231 389.351 225.231 386.143Z" fill="#FDAF17"/>
<path fill-rule="evenodd" clip-rule="evenodd" d="M357.757 250.203H332.727C330.611 253.685 326.783 256.012 322.409 256.012C315.746 256.012 310.345 250.611 310.345 243.947C310.345 237.283 315.746 231.881 322.409 231.881C326.783 231.881 330.611 234.209 332.727 237.691H372.816C378.401 237.691 381.207 244.446 377.252 248.401L352.004 273.653V341.8H339.493V271.069C339.493 269.404 340.154 267.808 341.33 266.632L357.757 250.203ZM321.962 243.947C321.962 244.194 322.163 244.394 322.409 244.394C322.656 244.394 322.856 244.194 322.856 243.947C322.856 243.7 322.656 243.5 322.409 243.5C322.163 243.5 321.962 243.7 321.962 243.947ZM305.877 319.787V386.5H318.388V304.725C318.388 299.141 311.634 296.335 307.679 300.289L233.626 374.354C232.793 374.172 231.928 374.077 231.04 374.077C224.379 374.077 218.976 379.479 218.976 386.142C218.976 392.806 224.379 398.208 231.04 398.208C237.702 398.208 243.103 392.806 243.103 386.142C243.103 385.05 242.958 383.992 242.687 382.988L305.877 319.787ZM230.593 386.142C230.593 386.389 230.793 386.589 231.04 386.589C231.288 386.589 231.486 386.389 231.486 386.142C231.486 385.896 231.288 385.696 231.04 385.696C230.793 385.696 230.593 385.896 230.593 386.142ZM230.593 101.737C230.593 101.984 230.793 102.184 231.04 102.184C231.286 102.184 231.486 101.984 231.486 101.737C231.486 101.49 231.286 101.29 231.04 101.29C230.793 101.29 230.593 101.49 230.593 101.737ZM231.04 89.6713C237.702 89.6713 243.103 95.0732 243.103 101.737C243.103 108.401 237.702 113.803 231.04 113.803C230.153 113.803 229.286 113.708 228.453 113.526L154.373 187.617C150.432 191.559 143.693 188.767 143.693 183.192V101.379H156.203V168.093L219.392 104.892C219.121 103.887 218.976 102.829 218.976 101.737C218.976 95.0732 224.377 89.6713 231.04 89.6713ZM139.225 243.933C139.225 244.179 139.425 244.379 139.672 244.379C139.918 244.379 140.118 244.179 140.118 243.933C140.118 243.686 139.918 243.486 139.672 243.486C139.425 243.486 139.225 243.686 139.225 243.933ZM139.672 231.867C146.333 231.867 151.735 237.269 151.735 243.933C151.735 250.596 146.333 255.998 139.672 255.998C135.298 255.998 131.47 253.673 129.354 250.189H89.2256C83.6477 250.189 80.8622 243.446 84.8014 239.507L110.077 214.226V146.079H122.588V216.818C122.588 218.477 121.928 220.069 120.754 221.242L104.322 237.676H129.354C131.47 234.194 135.298 231.867 139.672 231.867Z" fill="#FDAF17"/>
<path fill-rule="evenodd" clip-rule="evenodd" d="M82.3741 293.546H133.27C134.925 293.546 136.517 294.202 137.695 295.38L179.141 336.832C180.315 338.005 180.972 339.598 180.972 341.257V382.925H168.462V343.848L130.68 306.059H82.3741V293.546Z" fill="#FDAF17"/>
<path fill-rule="evenodd" clip-rule="evenodd" d="M380.84 189.875H329.944C328.271 189.875 326.684 189.205 325.521 188.043L284.073 146.589C282.901 145.416 282.241 143.824 282.241 142.165V95.1375H294.752V139.573L332.536 177.363H380.84V189.875Z" fill="#FDAF17"/>
<path d="M278.847 382.925L378.932 282.825C378.932 282.825 397.697 264.95 397.697 242.606C397.697 225.963 387.287 212.791 381.973 207.153C442.078 266.652 438.362 301.942 419.144 323.044L255.614 486.6C251.001 431.924 253.789 406.845 278.847 382.925Z" fill="#FDAF17"/>
<path d="M378.932 204.175L278.848 104.075C253.841 80.1547 251.06 55.0754 255.662 0.400024L419.144 163.956C419.144 163.956 463.825 204.175 463.825 242.606C463.825 282.825 419.144 323.044 419.144 323.044C438.36 301.944 442.078 266.652 381.974 207.153C380.976 206.168 379.963 205.174 378.932 204.175Z" fill="#005A42"/>
<path d="M185.912 382.925L85.8281 282.825C22.5629 221.521 26.0802 185.406 45.6157 163.956C45.6157 163.956 0.935303 204.175 0.935303 244.394C0.935303 282.825 45.6157 323.044 45.6157 323.044L209.098 486.6C213.7 431.924 210.919 406.845 185.912 382.925Z" fill="#005A42"/>
<path d="M185.912 104.075L85.8286 204.175C85.8286 204.175 67.0628 222.05 67.0628 244.394C67.0628 261.037 77.4743 274.209 82.7871 279.847C83.7833 280.832 84.797 281.826 85.8286 282.825C85.8286 282.825 84.6069 281.778 82.7871 279.847C22.6823 220.348 26.3992 185.056 45.6162 163.956L209.146 0.400024C213.759 55.0754 210.973 80.1547 185.912 104.075Z" fill="#FDAF17"/>
<path d="M201.87 179.07C201.87 182.752 198.898 185.737 195.231 185.737C191.565 185.737 188.593 182.752 188.593 179.07C188.593 175.387 191.565 172.4 195.231 172.4C198.898 172.4 201.87 175.387 201.87 179.07Z" fill="#FDAF17"/>
<path d="M254.838 289.866C254.838 293.548 251.866 296.533 248.2 296.533C244.533 296.533 241.561 293.548 241.561 289.866C241.561 286.184 244.533 283.197 248.2 283.197C251.866 283.197 254.838 286.184 254.838 289.866Z" fill="#FDAF17"/>
<path fill-rule="evenodd" clip-rule="evenodd" d="M260.21 255.083L310.982 306.086L304.507 312.535V316.757H267.742C266.078 316.757 264.482 316.092 263.308 314.914L250.947 302.496C250.063 302.688 249.144 302.79 248.2 302.79C241.053 302.79 235.307 296.978 235.307 289.866C235.307 282.754 241.053 276.941 248.2 276.941C255.347 276.941 261.093 282.754 261.093 289.866C261.093 291.387 260.831 292.848 260.348 294.206L270.34 304.245H291.494L246.951 259.498C244.529 257.065 244.511 253.119 246.951 250.668L280.261 217.208H263.154L242.558 237.898L228.04 252.48V314.995C228.04 320.573 221.29 323.369 217.349 319.412L190.8 292.74C189.644 291.58 188.975 289.996 188.975 288.325V190.374C185.01 188.164 182.338 183.919 182.338 179.07C182.338 171.957 188.085 166.144 195.231 166.144C202.378 166.144 208.126 171.957 208.126 179.07C208.126 183.919 205.454 188.164 201.486 190.374V285.742L215.53 299.849V164.48L191.821 140.663L200.685 131.835L226.218 157.482C227.392 158.662 228.04 160.253 228.04 161.897V234.747L256.121 206.538C257.295 205.358 258.891 204.695 260.555 204.695H295.311C300.88 204.695 303.674 211.423 299.745 215.368L260.21 255.083ZM248.583 289.866C248.583 289.612 248.386 289.453 248.2 289.453C248.014 289.453 247.818 289.612 247.818 289.866C247.818 290.118 248.014 290.277 248.2 290.277C248.386 290.277 248.583 290.118 248.583 289.866ZM195.615 179.07C195.615 178.816 195.417 178.657 195.231 178.657C195.047 178.657 194.848 178.816 194.848 179.07C194.848 179.322 195.047 179.481 195.231 179.481C195.417 179.481 195.615 179.322 195.615 179.07Z" fill="#FDAF17"/>
</svg>
